<?xml version="1.0" standalone="no"?>
<!DOCTYPE svg PUBLIC "-//W3C//DTD SVG 20010904//EN"
 "http://www.w3.org/TR/2001/REC-SVG-20010904/DTD/svg10.dtd">
<svg version="1.0" xmlns="http://www.w3.org/2000/svg"
 width="1024.000000pt" height="1536.000000pt" viewBox="0 0 1024.000000 1536.000000"
 preserveAspectRatio="xMidYMid meet">

<g transform="translate(0.000000,1536.000000) scale(0.100000,-0.100000)"
fill="#000000" stroke="none">
<path d="M4890 11404 c-659 -25 -1265 -131 -1865 -325 -338 -109 -811 -306
-825 -343 -34 -93 -49 -832 -22 -1106 76 -760 325 -1592 665 -2215 420 -772
991 -1442 1657 -1947 257 -194 584 -398 638 -398 48 0 431 242 662 419 1201
919 1991 2258 2219 3762 57 375 77 899 47 1244 -24 283 -7 248 -153 317 -657
310 -1512 525 -2303 578 -162 10 -589 19 -720 14z m1360 -821 c259 -64 446
-204 546 -408 56 -114 73 -183 81 -315 10 -183 -32 -384 -109 -518 -71 -124
-188 -235 -329 -311 -81 -44 -255 -105 -332 -116 -26 -4 -47 -9 -47 -11 0 -2
66 -92 147 -201 80 -109 163 -220 183 -248 361 -487 390 -523 472 -589 92 -74
161 -105 258 -114 l65 -7 3 -111 c3 -133 15 -124 -158 -124 -176 0 -320 26
-429 76 -82 37 -195 160 -342 369 -269 384 -425 604 -506 713 -127 170 -172
192 -399 192 l-125 0 3 -498 c3 -546 1 -527 64 -569 28 -18 138 -42 197 -43
l37 0 0 -100 0 -100 -490 0 -490 0 0 98 0 98 78 11 c42 6 94 17 114 26 60 25
67 51 78 274 11 236 12 2036 1 2176 -6 81 -11 101 -31 122 -26 28 -98 55 -147
55 l-33 0 0 100 0 101 778 -4 c750 -3 780 -4 862 -24z"/>
<path d="M5230 9738 l0 -613 332 6 c348 7 396 12 520 59 209 78 347 276 365
520 20 291 -117 509 -373 593 -124 41 -188 47 -526 47 l-318 0 0 -612z"/>
</g>
</svg>
